<svg width="20" height="20" viewBox="0 0 20 20" fill="none" xmlns="http://www.w3.org/2000/svg">
<path fill-rule="evenodd" clip-rule="evenodd" d="M17.8571 10C17.8571 12.0838 17.0293 14.0823 15.5558 15.5558C14.0823 17.0293 12.0838 17.8571 10 17.8571C7.91616 17.8571 5.91766 17.0293 4.44416 15.5558C2.97066 14.0823 2.14286 12.0838 2.14286 10C2.14286 7.91616 2.97066 5.91766 4.44416 4.44416C5.91766 2.97066 7.91616 2.14286 10 2.14286C12.0838 2.14286 14.0823 2.97066 15.5558 4.44416C17.0293 5.91766 17.8571 7.91616 17.8571 10ZM20 10C20 12.6522 18.9464 15.1957 17.0711 17.0711C15.1957 18.9464 12.6522 20 10 20C7.34784 20 4.8043 18.9464 2.92893 17.0711C1.05357 15.1957 0 12.6522 0 10C0 7.34784 1.05357 4.8043 2.92893 2.92893C4.8043 1.05357 7.34784 0 10 0C12.6522 0 15.1957 1.05357 17.0711 2.92893C18.9464 4.8043 20 7.34784 20 10ZM11.9 14.05C11.9584 14.1829 12.0432 14.3025 12.1493 14.4016C12.2554 14.5007 12.3805 14.5773 12.517 14.6266C12.6535 14.6759 12.7987 14.6969 12.9436 14.6884C13.0885 14.6799 13.2302 14.642 13.36 14.5771C13.4898 14.5122 13.6051 14.4216 13.6989 14.3107C13.7926 14.1999 13.8629 14.0712 13.9053 13.9324C13.9478 13.7936 13.9617 13.6476 13.946 13.5033C13.9304 13.359 13.8855 13.2193 13.8143 13.0929C13.24 11.9371 11.7414 11.0714 10 11.0714C8.25857 11.0714 6.76143 11.9371 6.18571 13.0929C6.11446 13.2193 6.06964 13.359 6.05399 13.5033C6.03833 13.6476 6.05217 13.7936 6.09465 13.9324C6.13714 14.0712 6.20739 14.1999 6.30113 14.3107C6.39488 14.4216 6.51017 14.5122 6.64001 14.5771C6.76985 14.642 6.91152 14.6799 7.05644 14.6884C7.20135 14.6969 7.34648 14.6759 7.48301 14.6266C7.61955 14.5773 7.74464 14.5007 7.85071 14.4016C7.95677 14.3025 8.04158 14.1829 8.1 14.05C8.23857 13.7771 8.88286 13.2143 10 13.2143C11.1171 13.2143 11.7614 13.7771 11.9 14.05ZM12.8571 10C12.573 10 12.3005 9.88712 12.0995 9.68619C11.8986 9.48525 11.7857 9.21273 11.7857 8.92857V7.5C11.7857 7.21584 11.8986 6.94332 12.0995 6.74239C12.3005 6.54145 12.573 6.42857 12.8571 6.42857C13.1413 6.42857 13.4138 6.54145 13.6148 6.74239C13.8157 6.94332 13.9286 7.21584 13.9286 7.5V8.92857C13.9286 9.21273 13.8157 9.48525 13.6148 9.68619C13.4138 9.88712 13.1413 10 12.8571 10ZM6.07143 8.92857C6.07143 9.21273 6.18431 9.48525 6.38524 9.68619C6.58617 9.88712 6.8587 10 7.14286 10C7.42702 10 7.69954 9.88712 7.90047 9.68619C8.1014 9.48525 8.21429 9.21273 8.21429 8.92857V7.5C8.21429 7.21584 8.1014 6.94332 7.90047 6.74239C7.69954 6.54145 7.42702 6.42857 7.14286 6.42857C6.8587 6.42857 6.58617 6.54145 6.38524 6.74239C6.18431 6.94332 6.07143 7.21584 6.07143 7.5V8.92857Z" fill="#BE1E08"/>
</svg>
